# xmcd CD database file
#
# Track frame offsets:
#	150
#	40806
#	74220
#	98387
#	130487
#	161833
#
# Disc length: 2601 seconds
#
# Revision: 1
# Processed by: cddbd v1.5.1PL2 Copyright (c) Steve Scherf et al.
# Submitted via: CDex 1.51
#
DISCID=520a2706
DTITLE=Andrew Hill - Judgment!
DYEAR=1964
DGENRE=Jazz
TTITLE0=Siete Ocho
TTITLE1=Flea Flop
TTITLE2=Yokada Yokada
TTITLE3=Alfred
TTITLE4=Judgment
TTITLE5=Reconciliation
EXTD=YEAR: 1964
EXTT0=
EXTT1=
EXTT2=
EXTT3=
EXTT4=
EXTT5=
PLAYORDER=
